<svg width="29" height="28" viewBox="0 0 29 28" fill="none" xmlns="http://www.w3.org/2000/svg">
<path fill-rule="evenodd" clip-rule="evenodd" d="M24.6109 11.5552H3.81625C3.33325 11.5552 2.94125 11.1632 2.94125 10.6802C2.94125 10.1972 3.33325 9.80518 3.81625 9.80518H24.6109C25.0939 9.80518 25.4859 10.1972 25.4859 10.6802C25.4859 11.1632 25.0939 11.5552 24.6109 11.5552Z" fill="#61646B"/>
<path fill-rule="evenodd" clip-rule="evenodd" d="M19.4014 16.1113C18.9184 16.1113 18.5217 15.7193 18.5217 15.2363C18.5217 14.7533 18.9079 14.3613 19.3909 14.3613H19.4014C19.8844 14.3613 20.2764 14.7533 20.2764 15.2363C20.2764 15.7193 19.8844 16.1113 19.4014 16.1113Z" fill="#61646B"/>
<path fill-rule="evenodd" clip-rule="evenodd" d="M14.2243 16.1113C13.7413 16.1113 13.3447 15.7193 13.3447 15.2363C13.3447 14.7533 13.7308 14.3613 14.2138 14.3613H14.2243C14.7073 14.3613 15.0993 14.7533 15.0993 15.2363C15.0993 15.7193 14.7073 16.1113 14.2243 16.1113Z" fill="#61646B"/>
<path fill-rule="evenodd" clip-rule="evenodd" d="M9.03638 16.1113C8.55338 16.1113 8.15555 15.7193 8.15555 15.2363C8.15555 14.7533 8.54288 14.3613 9.02588 14.3613H9.03638C9.51938 14.3613 9.91138 14.7533 9.91138 15.2363C9.91138 15.7193 9.51938 16.1113 9.03638 16.1113Z" fill="#61646B"/>
<path fill-rule="evenodd" clip-rule="evenodd" d="M19.4014 20.6458C18.9184 20.6458 18.5217 20.2538 18.5217 19.7708C18.5217 19.2878 18.9079 18.8958 19.3909 18.8958H19.4014C19.8844 18.8958 20.2764 19.2878 20.2764 19.7708C20.2764 20.2538 19.8844 20.6458 19.4014 20.6458Z" fill="#61646B"/>
<path fill-rule="evenodd" clip-rule="evenodd" d="M14.2243 20.6458C13.7413 20.6458 13.3447 20.2538 13.3447 19.7708C13.3447 19.2878 13.7308 18.8958 14.2138 18.8958H14.2243C14.7073 18.8958 15.0993 19.2878 15.0993 19.7708C15.0993 20.2538 14.7073 20.6458 14.2243 20.6458Z" fill="#61646B"/>
<path fill-rule="evenodd" clip-rule="evenodd" d="M9.03638 20.6458C8.55338 20.6458 8.15555 20.2538 8.15555 19.7708C8.15555 19.2878 8.54288 18.8958 9.02588 18.8958H9.03638C9.51938 18.8958 9.91138 19.2878 9.91138 19.7708C9.91138 20.2538 9.51938 20.6458 9.03638 20.6458Z" fill="#61646B"/>
<path fill-rule="evenodd" clip-rule="evenodd" d="M18.9258 6.75625C18.4428 6.75625 18.0508 6.36425 18.0508 5.88125V2.04175C18.0508 1.55875 18.4428 1.16675 18.9258 1.16675C19.4088 1.16675 19.8008 1.55875 19.8008 2.04175V5.88125C19.8008 6.36425 19.4088 6.75625 18.9258 6.75625Z" fill="#61646B"/>
<path fill-rule="evenodd" clip-rule="evenodd" d="M9.50119 6.75625C9.01819 6.75625 8.62619 6.36425 8.62619 5.88125V2.04175C8.62619 1.55875 9.01819 1.16675 9.50119 1.16675C9.98419 1.16675 10.3762 1.55875 10.3762 2.04175V5.88125C10.3762 6.36425 9.98419 6.75625 9.50119 6.75625Z" fill="#61646B"/>
<mask id="mask0_319_1876" style="mask-type:luminance" maskUnits="userSpaceOnUse" x="2" y="3" width="24" height="24">
<path fill-rule="evenodd" clip-rule="evenodd" d="M2.83334 3.00903H25.5833V26.2501H2.83334V3.00903Z" fill="white"/>
</mask>
<g mask="url(#mask0_319_1876)">
<path fill-rule="evenodd" clip-rule="evenodd" d="M9.27451 4.75903C6.24934 4.75903 4.58334 6.37253 4.58334 9.30203V19.8592C4.58334 22.8529 6.24934 24.5002 9.27451 24.5002H19.1422C22.1673 24.5002 23.8333 22.8832 23.8333 19.9479V9.30203C23.838 7.8612 23.4507 6.7412 22.6818 5.9712C21.8908 5.17787 20.6717 4.75903 19.1527 4.75903H9.27451ZM19.1422 26.2502H9.27451C5.30201 26.2502 2.83334 23.8014 2.83334 19.8592V9.30203C2.83334 5.41937 5.30201 3.00903 9.27451 3.00903H19.1527C21.1465 3.00903 22.795 3.60637 23.9208 4.73453C25.014 5.83237 25.5892 7.41087 25.5833 9.30437V19.9479C25.5833 23.8352 23.1147 26.2502 19.1422 26.2502Z" fill="#61646B"/>
</g>
</svg>
