<svg width="29" height="28" viewBox="0 0 29 28" fill="none" xmlns="http://www.w3.org/2000/svg">
<mask id="mask0_319_1909" style="mask-type:luminance" maskUnits="userSpaceOnUse" x="2" y="7" width="24" height="20">
<path fill-rule="evenodd" clip-rule="evenodd" d="M2.83334 7.63013H25.6835V26.5087H2.83334V7.63013Z" fill="white"/>
</mask>
<g mask="url(#mask0_319_1909)">
<path fill-rule="evenodd" clip-rule="evenodd" d="M8.33475 9.38013C7.82025 9.38013 6.10058 9.58779 5.60708 12.2525L4.70642 19.2525C4.41358 21.216 4.63992 22.637 5.38075 23.4968C6.11225 24.3461 7.42125 24.7591 9.38125 24.7591H19.1206C20.3433 24.7591 22.0128 24.5153 23.0208 23.351C23.8211 22.4281 24.0964 21.0538 23.8398 19.2653L22.9309 12.2046C22.5436 10.4651 21.5216 9.38013 20.2103 9.38013H8.33475ZM19.1206 26.5091H9.38125C6.88108 26.5091 5.13925 25.8966 4.05542 24.6378C2.96692 23.3755 2.60292 21.482 2.97392 19.011L3.87925 11.9806C4.47425 8.75713 6.65008 7.63013 8.33475 7.63013H20.2103C21.9019 7.63013 23.9587 8.75363 24.6529 11.9048L25.5734 19.0296C25.9036 21.3291 25.4906 23.1736 24.3438 24.4966C23.2027 25.8126 21.3967 26.5091 19.1206 26.5091Z" fill="#61646B"/>
</g>
<path fill-rule="evenodd" clip-rule="evenodd" d="M19.2808 9.12374C18.7978 9.12374 18.4058 8.73174 18.4058 8.24874C18.4058 5.95157 16.5368 4.08374 14.2408 4.08374H14.2233C13.1254 4.08374 12.0556 4.52591 11.2798 5.29707C10.5004 6.07291 10.0536 7.14974 10.0536 8.24874C10.0536 8.73174 9.6616 9.12374 9.1786 9.12374C8.6956 9.12374 8.3036 8.73174 8.3036 8.24874C8.3036 6.68657 8.93827 5.15941 10.0443 4.05691C11.1468 2.96141 12.6669 2.33374 14.2198 2.33374H14.2443C17.5028 2.33374 20.1558 4.98674 20.1558 8.24874C20.1558 8.73174 19.7638 9.12374 19.2808 9.12374Z" fill="#61646B"/>
<path fill-rule="evenodd" clip-rule="evenodd" d="M17.7005 14.3782H17.6469C17.1639 14.3782 16.7719 13.9862 16.7719 13.5032C16.7719 13.0202 17.1639 12.6282 17.6469 12.6282C18.1299 12.6282 18.5487 13.0202 18.5487 13.5032C18.5487 13.9862 18.1835 14.3782 17.7005 14.3782Z" fill="#61646B"/>
<path fill-rule="evenodd" clip-rule="evenodd" d="M10.8976 14.3782H10.8451C10.3621 14.3782 9.97007 13.9862 9.97007 13.5032C9.97007 13.0202 10.3621 12.6282 10.8451 12.6282C11.3281 12.6282 11.7469 13.0202 11.7469 13.5032C11.7469 13.9862 11.3806 14.3782 10.8976 14.3782Z" fill="#61646B"/>
</svg>
