<svg width="28" height="28" viewBox="0 0 28 28" fill="none" xmlns="http://www.w3.org/2000/svg">
<path fill-rule="evenodd" clip-rule="evenodd" d="M13.7083 18.8468C13.2253 18.8468 12.8333 18.4548 12.8333 17.9718V9.42358C12.8333 8.94058 13.2253 8.54858 13.7083 8.54858C14.1913 8.54858 14.5833 8.94058 14.5833 9.42358V17.9718C14.5833 18.4548 14.1913 18.8468 13.7083 18.8468Z" fill="#61646B"/>
<path fill-rule="evenodd" clip-rule="evenodd" d="M17.9859 14.572H9.43076C8.94659 14.572 8.55576 14.18 8.55576 13.697C8.55576 13.214 8.94659 12.822 9.43076 12.822H17.9859C18.4689 12.822 18.8609 13.214 18.8609 13.697C18.8609 14.18 18.4689 14.572 17.9859 14.572Z" fill="#61646B"/>
<path fill-rule="evenodd" clip-rule="evenodd" d="M8.24134 2.91675C5.00734 2.91675 2.91667 5.12991 2.91667 8.55758V18.8592C2.91667 22.2869 5.00734 24.5001 8.24134 24.5001H19.1753C22.4105 24.5001 24.5 22.2869 24.5 18.8592V8.55758C24.5 5.12991 22.4105 2.91675 19.1753 2.91675H8.24134ZM19.1753 26.2501H8.24134C4.00984 26.2501 1.16667 23.2797 1.16667 18.8592V8.55758C1.16667 4.13708 4.00984 1.16675 8.24134 1.16675H19.1753C23.4068 1.16675 26.25 4.13708 26.25 8.55758V18.8592C26.25 23.2797 23.4068 26.2501 19.1753 26.2501Z" fill="#61646B"/>
</svg>
