<svg width="337" height="107" viewBox="0 0 337 107" fill="none" xmlns="http://www.w3.org/2000/svg">
<path d="M29.29 49.26L36.46 22.63C37.84 17.52 41.01 15.04 45.84 15.04H63.64L67.37 1.38H45.43C34.11 1.38 27.35 5.8 24.87 14.77L15.62 49.27H7.06001L3.61001 62.38H12.03L0.710007 104.74H14.51L25.83 62.38H46.39L49.84 49.27H29.28L29.29 49.26Z" fill="#3A0AE5"/>
<path d="M76.76 1.38L49.16 104.74H62.96L90.56 1.38H76.76Z" fill="#3A0AE5"/>
<path d="M137.34 14.49L140.79 1.38H99.11L95.66 14.49H109.6L85.45 104.74H99.25L123.4 14.49H137.34Z" fill="#3A0AE5"/>
<path d="M164.11 5.49294e-06C153.07 5.49294e-06 145.89 4.83001 143.41 14.21L119.12 104.73H132.92L155.83 19.45C156.8 15.59 159.14 13.65 162.87 13.65C168.81 13.65 170.88 16.27 169.49 21.38L147.14 104.73H160.94L182.88 22.62C186.88 7.72001 180.39 -0.00999451 164.11 -0.00999451V5.49294e-06Z" fill="#3A0AE5"/>
<path d="M211.03 22.63C212.41 17.52 215.45 15.04 220.28 15.04H238.08L241.81 1.38H219.87C208.56 1.38 201.79 5.8 199.31 14.77L191.58 43.89H183.02L179.57 57H187.99L181.37 81.84C177.23 97.16 183.02 104.75 198.48 104.75H214.21L217.66 91.64H201.24C195.58 91.64 193.51 88.6 195.03 82.67L201.93 57H222.22L225.67 43.89H205.38L211.04 22.64L211.03 22.63Z" fill="#3A0AE5"/>
<path d="M265.4 46.64L259.19 43.47C254.91 41.26 253.26 37.95 254.5 33.4L258.23 19.46C259.33 15.87 262.09 13.66 265.82 13.66C270.65 13.66 272.86 16.56 271.75 21.39L270.1 28.15H283.9L285.28 22.63C288.87 8.42 281.83 0 266.51 0C255.89 0 248.3 5.24 245.81 14.21L240.57 33.94C237.95 43.74 240.98 50.64 249.12 54.64L255.19 57.68C259.06 59.89 260.57 63.34 259.19 68.44L254.5 86.66C253.39 90.52 250.77 92.46 246.77 92.46C241.67 92.46 239.6 89.84 240.84 84.73L243.19 75.07H229.39L227.32 83.49C223.73 98.39 230.08 106.12 246.09 106.12C257.27 106.12 264.72 100.32 267.62 89.15L273.14 68.45C275.9 57.96 273.28 50.92 265.41 46.65L265.4 46.64Z" fill="#3A0AE5"/>
<path d="M317.15 0C306.53 0 298.94 5.24 296.45 14.21L291.21 33.94C288.59 43.74 291.62 50.64 299.77 54.64L305.84 57.68C309.71 59.89 311.22 63.34 309.84 68.44L305.15 86.66C304.05 90.52 301.43 92.46 297.42 92.46C292.32 92.46 290.25 89.84 291.49 84.73L293.83 75.07H280.03L277.96 83.49C274.37 98.39 280.72 106.12 296.73 106.12C307.91 106.12 315.36 100.32 318.26 89.15L323.78 68.45C326.54 57.96 323.92 50.92 316.05 46.65L309.84 43.48C305.56 41.27 303.91 37.96 305.15 33.41L308.88 19.47C309.99 15.88 312.74 13.67 316.47 13.67C321.3 13.67 323.51 16.57 322.4 21.4L320.75 28.16H334.55L335.93 22.64C339.52 8.43 332.48 0.01 317.16 0.01L317.15 0Z" fill="#3A0AE5"/>
</svg>
